<svg xmlns="http://www.w3.org/2000/svg" viewBox="0 0 643.60 183.60" width="643.60" height="183.60" role="img" aria-label="Pediu!">
<title>Pediu! — pediu-logo-principal</title>
<g transform="translate(-2.800,167.600) scale(0.20000,-0.20000)">
<path d="M240 194V354H360Q394 354 419.0 367.5Q444 381 458.0 406.0Q472 431 472 465Q472 500 458.0 525.0Q444 550 419.0 563.0Q394 576 360 576H240V736H355Q449 736 517.5 704.5Q586 673 623.0 614.0Q660 555 660 473V457Q660 376 623.0 317.0Q586 258 517.5 226.0Q449 194 355 194ZM74 0V736H260V0Z" transform="translate(0.0,0)" fill="#0B140F"/><path d="M325 -20Q255 -20 201.0 4.0Q147 28 110.0 69.0Q73 110 53.5 161.0Q34 212 34 266V286Q34 342 53.5 393.5Q73 445 109.5 485.0Q146 525 199.0 548.5Q252 572 319 572Q408 572 470.0 532.0Q532 492 565.0 426.5Q598 361 598 284V226H110V324H493L430 280Q430 327 417.5 359.5Q405 392 380.5 409.0Q356 426 319 426Q283 426 256.5 409.5Q230 393 216.0 359.5Q202 326 202 275Q202 229 215.0 195.5Q228 162 255.0 144.0Q282 126 325 126Q363 126 387.5 139.0Q412 152 422 174H588Q576 118 540.5 74.0Q505 30 450.5 5.0Q396 -20 325 -20Z" transform="translate(656.0,0)" fill="#0B140F"/><path d="M293 -18Q235 -18 187.5 3.0Q140 24 105.5 61.5Q71 99 52.5 150.0Q34 201 34 261V285Q34 345 51.5 396.5Q69 448 102.0 486.5Q135 525 182.0 546.5Q229 568 287 568Q354 568 401.5 538.5Q449 509 474.5 453.0Q500 397 502 317L460 348V730H642V0H498V224H518Q516 150 488.0 95.5Q460 41 410.5 11.5Q361 -18 293 -18ZM342 132Q375 132 402.5 147.0Q430 162 447.0 191.0Q464 220 464 261V295Q464 335 446.5 362.0Q429 389 401.5 403.5Q374 418 342 418Q306 418 277.5 399.5Q249 381 232.5 348.5Q216 316 216 273Q216 230 232.5 198.5Q249 167 277.5 149.5Q306 132 342 132Z" transform="translate(1264.0,0)" fill="#0B140F"/><path d="M92 0V552H274V0ZM22 420V552H274V420ZM167 596Q117 596 93.5 621.5Q70 647 70 687Q70 727 93.5 752.5Q117 778 166 778Q216 778 239.0 752.5Q262 727 262 687Q262 647 239.0 621.5Q216 596 167 596Z" transform="translate(1952.0,0)" fill="#0B140F"/><path d="M251 -18Q157 -18 105.5 43.5Q54 105 54 232V552H236V227Q236 190 258.0 167.0Q280 144 317 144Q354 144 377.0 167.0Q400 190 400 229V552H582V0H438V232H448Q448 147 426.5 91.5Q405 36 363.0 9.0Q321 -18 259 -18Z" transform="translate(2274.0,0)" fill="#0B140F"/><path d="M69 256V730H255V256ZM56 0V174H268V0Z" transform="translate(2904.0,0)" fill="#14CE6B"/>
</g>
</svg>